# xmcd CD database file
#
# Track frame offsets:
#	150
#	13700
#	29415
#	43617
#	56565
#	71180
#	83917
#	98620
#	113302
#	129607
#	144427
#	161215
#	174582
#	190487
#	204965
#	218965
#	233200
#	246357
#	261497
#	276872
#	290315
#	304030
#	318920
#	332822
#
# Disc length: 4623 seconds
#
# Revision: 0
# Processed by: cddbd v1.5.2PL0 Copyright (c) Steve Scherf et al.
# Submitted via: CDex 1.70beta2
#
DISCID=65120d18
DTITLE=Artie Shaw - Artie and the singers
DYEAR=1900
DGENRE=Jazz
TTITLE0=There's Frost On The Moon - Peg La Centra
TTITLE1=Let's Call A Heart A Heart - Peg La Centra
TTITLE2=A Strange Loneliness - Dolores O'Neil
TTITLE3=Shoot The Likker To Me John Boy - Leo Watson
TTITLE4=Indian Love Call - Tony Pastor
TTITLE5=They Say - Helen Forrest
TTITLE6=Deep Purple - Helen Forrest
TTITLE7=Any Old Time - Billie Holiday
TTITLE8=This Time The Dream's On Me - Bonnie Lake
TTITLE9=Blues In The Night - Hots Lips Page
TTITLE10=Gloomy Sunday - Pauline Byrne
TTITLE11=Don't Fall Asleep - Pauline Byrne
TTITLE12=Beau Night In Hotchkiss Corner - Anita Boyer
TTITLE13=t's For Me - Hal Stevens
TTITLE14=Love Me A Little Little - Lena Horne
TTITLE15=Don't Take Your Love From Me - Lena Horne
TTITLE16=You Do Something To Me - Teddy Walters
TTITLE17=Someone's Rocking My Dreamboat - Paula Kelly
TTITLE18=Absent Minded Moon - Georgia Gibbs
TTITLE19=What Is This Thing Called Love - The Meltones
TTITLE20=I've Got The Sun In The Morning - The Meltones
TTITLE21=Get Out Of Town - Mel Torme
TTITLE22=It's The Same Old Dream - Mel Torme
TTITLE23=My Heart Belongs To Daddy - Kitty Kallen
EXTD=
EXTT0=
EXTT1=
EXTT2=
EXTT3=
EXTT4=
EXTT5=
EXTT6=
EXTT7=
EXTT8=
EXTT9=
EXTT10=
EXTT11=
EXTT12=
EXTT13=
EXTT14=
EXTT15=
EXTT16=
EXTT17=
EXTT18=
EXTT19=
EXTT20=
EXTT21=
EXTT22=
EXTT23=
PLAYORDER=
